<svg version="1.1" id="Capa_1" xmlns="http://www.w3.org/2000/svg" viewBox="0 0 356.883 356.883">
<g>
	<path fill="#3b82ba" d="M264.916,58.007c-51.574,0-91.975,21.409-91.975,48.739v8.352c-11.241,0.667-21.945,3.36-31.751,7.722
		c-14.149-4.668-30.983-7.346-49.218-7.346C40.399,115.474,0,136.882,0,164.211v28.46v29.006v28.461
		c0,27.33,40.399,48.738,91.973,48.738c18.54,0,35.635-2.766,49.93-7.579c11.207,4.872,23.564,7.579,36.543,7.579
		c12.979,0,25.335-2.707,36.543-7.579c14.293,4.813,31.389,7.579,49.928,7.579c51.57,0,91.967-21.408,91.967-48.738v-28.461v-29.006
		v-28.46v-29.005v-28.46C356.883,79.416,316.486,58.007,264.916,58.007z M206.232,81.094c15.582-7.79,36.424-12.081,58.684-12.081
		c22.259,0,43.098,4.291,58.678,12.081c14.162,7.081,22.283,16.431,22.283,25.652c0,9.218-8.121,18.567-22.283,25.648
		c-15.582,7.792-36.42,12.083-58.678,12.083c-6.882,0-13.628-0.411-20.126-1.209c-15.066-15.701-35.636-26.08-58.573-28.009
		c-1.491-2.804-2.27-5.665-2.27-8.514C183.947,97.524,192.07,88.175,206.232,81.094z M178.445,287.87
		c-7.455,0-14.676-1.018-21.535-2.912c-5.047-1.394-9.895-3.266-14.498-5.563c-6.457-3.223-12.426-7.282-17.764-12.037
		c-3.311-2.948-6.377-6.164-9.167-9.611c-4.146-5.125-7.681-10.764-10.491-16.804c-1.612-3.466-2.986-7.064-4.101-10.773
		c-1.667-5.546-2.757-11.34-3.193-17.313c-0.143-1.967-0.219-3.952-0.219-5.956c0-1.697,0.059-3.381,0.162-5.053
		c1.814-29.316,19.295-54.459,44.155-67.133c4.577-2.333,9.403-4.244,14.428-5.681c5.368-1.534,10.963-2.522,16.72-2.91
		c1.82-0.122,3.654-0.19,5.504-0.19c0.557,0,1.112,0.01,1.667,0.021c1.286,0.026,2.564,0.084,3.835,0.17
		c5.484,0.37,10.82,1.288,15.954,2.7c7.784,2.142,15.104,5.418,21.767,9.641c6.615,4.193,12.584,9.316,17.72,15.188
		c4.921,5.626,9.077,11.936,12.306,18.768c1.715,3.629,3.168,7.406,4.335,11.305c1.735,5.797,2.835,11.864,3.223,18.123
		c0.103,1.672,0.163,3.355,0.163,5.053c0,2.004-0.076,3.989-0.221,5.956c-0.436,5.973-1.525,11.767-3.193,17.313
		c-1.114,3.71-2.488,7.308-4.102,10.773c-2.811,6.04-6.344,11.679-10.49,16.804c-2.79,3.447-5.856,6.663-9.166,9.611
		c-5.338,4.755-11.307,8.814-17.765,12.037c-4.602,2.297-9.452,4.169-14.498,5.563C193.119,286.853,185.899,287.87,178.445,287.87z
		 M33.29,138.56c15.582-7.79,36.423-12.08,58.683-12.08c12.5,0,24.553,1.353,35.478,3.918c-23.377,15.634-39.222,41.683-40.84,71.46
		c-20.228-0.633-38.995-4.835-53.319-11.997c-14.162-7.082-22.285-16.431-22.285-25.649C11.006,154.99,19.129,145.641,33.29,138.56z
		 M86.669,212.871c0.388,6.012,1.353,11.868,2.845,17.515c-21.331-0.305-41.215-4.561-56.223-12.064
		c-14.162-7.082-22.285-16.432-22.285-25.65v-4.986C25.646,202.093,53.567,211.919,86.669,212.871z M91.973,241.411
		c0.408,0,0.813-0.006,1.219-0.008c2.543,6.26,5.755,12.177,9.548,17.665c-3.54,0.226-7.134,0.342-10.767,0.342
		c-22.258,0-43.099-4.292-58.682-12.084c-14.162-7.081-22.285-16.431-22.285-25.649v-5.531
		C26.422,231.317,56.563,241.411,91.973,241.411z M91.973,287.87c-22.258,0-43.099-4.291-58.682-12.084
		c-14.162-7.081-22.285-16.43-22.285-25.648v-4.986c15.416,15.172,45.557,25.265,80.967,25.265c6.558,0,12.933-0.348,19.068-1.009
		c5.061,5.455,10.773,10.295,17.014,14.397C116.969,286.464,104.704,287.87,91.973,287.87z M345.877,250.138
		c0,9.219-8.121,18.567-22.283,25.648c-15.582,7.793-36.42,12.084-58.678,12.084c-12.73,0-24.996-1.406-36.08-4.065
		c6.239-4.103,11.951-8.942,17.014-14.397c6.135,0.661,12.51,1.009,19.066,1.009c35.408,0,65.547-10.093,80.961-25.265V250.138z
		 M345.877,221.677c0,9.219-8.121,18.568-22.283,25.649c-15.582,7.792-36.42,12.084-58.678,12.084
		c-3.632,0-7.226-0.116-10.766-0.342c3.793-5.488,7.006-11.405,9.548-17.665c0.406,0.002,0.811,0.008,1.218,0.008
		c35.408,0,65.547-10.093,80.961-25.265V221.677z M345.877,192.671c0,9.22-8.121,18.568-22.283,25.65
		c-15.006,7.504-34.889,11.76-56.217,12.064c1.492-5.646,2.457-11.503,2.844-17.515c33.098-0.952,61.018-10.777,75.656-25.186
		V192.671z M345.877,164.211c0,9.219-8.121,18.567-22.283,25.649c-14.322,7.162-33.09,11.364-53.314,11.997
		c-0.334-6.156-1.273-12.154-2.766-17.933c34.28-0.48,63.327-10.445,78.363-25.244V164.211z M345.877,135.206
		c0,9.219-8.121,18.567-22.283,25.649c-15.582,7.792-36.42,12.084-58.678,12.084c-0.334,0-0.667-0.005-1.001-0.007
		c-2.507-6.286-5.688-12.231-9.455-17.749c3.427,0.196,6.914,0.301,10.456,0.301c35.408,0,65.547-10.092,80.961-25.264V135.206z"/>
	<path fill="#3b82ba" d="M214.779,231.565c0-3.649-0.785-7.149-2.22-10.391c-4.172-9.42-13.851-16.642-25.775-18.979
		c-0.934-0.183-1.877-0.344-2.838-0.466v-9.06v-4.986v-23.474v-0.685c11.328,1.906,19.826,9.566,19.826,18.705
		c0,3.039,2.464,5.503,5.503,5.503c3.039,0,5.503-2.464,5.503-5.503c0-2.127-0.27-4.203-0.777-6.208
		c-3.086-12.206-15.08-21.722-30.055-23.618v-7.174c0-3.039-2.463-5.503-5.502-5.503c-1.782,0-3.361,0.851-4.367,2.164
		c-0.079,0.103-0.156,0.206-0.229,0.313c-0.572,0.869-0.908,1.907-0.908,3.025v7.174c-1.315,0.166-2.606,0.396-3.873,0.678
		c-15.504,3.442-26.957,15.203-26.957,29.148c0,3.679,0.8,7.204,2.259,10.467c1.52,3.396,3.761,6.502,6.561,9.197
		c3.473,3.343,7.81,6.047,12.724,7.873c2.915,1.083,6.028,1.863,9.287,2.276v4.101v5.531v23.475v4.105v0.881v0.119
		c0,0-0.002,0-0.003,0c-1.572-0.266-3.091-0.639-4.538-1.113c-4.088-1.342-7.622-3.472-10.258-6.14
		c-3.155-3.194-5.025-7.154-5.025-11.439c0-0.713-0.141-1.393-0.388-2.018c-0.806-2.04-2.79-3.485-5.116-3.485
		c-3.039,0-5.502,2.464-5.502,5.503c0,0.727,0.041,1.443,0.103,2.157c0.465,5.423,2.653,10.455,6.128,14.713
		c2.465,3.02,5.576,5.645,9.16,7.751c3.551,2.087,7.564,3.666,11.895,4.59c1.16,0.248,2.344,0.449,3.545,0.602v7.189
		c0,1.394,0.522,2.662,1.376,3.632c1.009,1.145,2.481,1.871,4.128,1.871c1.646,0,3.119-0.727,4.127-1.871
		c0.854-0.97,1.375-2.238,1.375-3.632v-7.189c1.203-0.152,2.385-0.353,3.546-0.602c4.33-0.924,8.345-2.503,11.896-4.59
		c3.584-2.106,6.695-4.73,9.159-7.75c3.475-4.258,5.663-9.291,6.128-14.713C214.737,233.01,214.779,232.292,214.779,231.565z
		 M171.003,200.54c-3.569-0.832-6.804-2.244-9.511-4.092c-3.33-2.273-5.86-5.202-7.23-8.516c-0.745-1.802-1.145-3.717-1.145-5.701
		c0-9.133,8.488-16.789,19.807-18.702c0.006-0.001,0.012-0.003,0.018-0.003v0.685v23.474v4.986v8.253
		C172.286,200.814,171.639,200.689,171.003,200.54z M203.773,231.565c0,4.284-1.871,8.244-5.025,11.439
		c-2.637,2.668-6.17,4.799-10.258,6.14c-1.449,0.475-2.967,0.849-4.539,1.113c-0.001,0-0.002,0-0.004,0v-0.119v-0.881v-4.105
		v-23.475v-5.531v-3.294c10.369,1.747,18.359,8.315,19.64,16.427C203.705,230.029,203.773,230.791,203.773,231.565z"/>
</g>
</svg>
