<svg version="1.1" id="Capa_1" xmlns="http://www.w3.org/2000/svg" viewBox="0 0 58 58">
<g>
	<path fill="#3b82ba" d="M32,0c-1.021,0-2.025,0.076-3.015,0.21C27.953,0.072,26.972,0,26,0C18.638,0,11.999,3.571,7.34,9.264
		C7.293,9.306,7.259,9.356,7.221,9.406c-1.485,1.839-2.761,3.898-3.793,6.126c-0.026,0.049-0.049,0.097-0.068,0.15
		c-0.711,1.557-1.304,3.193-1.76,4.897c-0.045,0.096-0.065,0.201-0.078,0.31C0.861,23.465,0.5,26.185,0.5,29
		c0,4.404,0.872,8.579,2.423,12.321c0.014,0.04,0.027,0.078,0.046,0.116c0.93,2.218,2.1,4.28,3.473,6.145
		c0.035,0.048,0.064,0.099,0.107,0.14c1.39,1.865,2.983,3.526,4.74,4.942c0.05,0.055,0.11,0.096,0.172,0.139
		C15.588,56.075,20.599,58,26,58c0.972,0,1.953-0.072,2.985-0.21C29.975,57.924,30.979,58,32,58c14.061,0,25.5-13.009,25.5-29
		S46.061,0,32,0z M21.44,2.614c-0.331,0.172-0.658,0.352-0.981,0.539c-0.181,0.105-0.363,0.206-0.541,0.316
		C19.641,3.639,19.37,3.819,19.1,4h-1.925c1.462-0.684,2.988-1.223,4.579-1.558C21.647,2.495,21.546,2.559,21.44,2.614z M11.36,46
		H7.774c-0.882-1.246-1.665-2.585-2.345-4h3.788c0.157,0.354,0.318,0.705,0.487,1.051c0.073,0.149,0.149,0.296,0.225,0.444
		c0.205,0.402,0.417,0.797,0.638,1.186c0.082,0.145,0.161,0.292,0.246,0.436C10.989,45.416,11.174,45.708,11.36,46z M4.968,17h3.827
		c-0.175,0.437-0.341,0.879-0.498,1.327c-0.043,0.124-0.087,0.247-0.129,0.371C8.024,19.128,7.89,19.562,7.763,20H3.857
		C4.175,18.969,4.547,17.969,4.968,17z M2.5,29c0-0.674,0.036-1.338,0.078-2h3.987c-0.001,0.016-0.001,0.032-0.002,0.048
		C6.526,27.694,6.5,28.343,6.5,29c0,0.335,0.012,0.667,0.022,1H2.539C2.528,29.666,2.5,29.337,2.5,29z M6.636,32
		c0.038,0.421,0.087,0.839,0.141,1.255c0.004,0.03,0.006,0.061,0.01,0.092C6.861,33.903,6.951,34.454,7.052,35H3.108
		c-0.195-0.982-0.349-1.981-0.448-3H6.636z M7.256,22c-0.026,0.118-0.048,0.238-0.072,0.356c-0.027,0.132-0.055,0.263-0.081,0.395
		c-0.122,0.627-0.23,1.26-0.315,1.902c-0.004,0.03-0.006,0.061-0.01,0.092C6.766,24.83,6.759,24.915,6.748,25H2.779
		c0.132-1.018,0.299-2.022,0.528-3H7.256z M7.495,37c0.031,0.122,0.06,0.246,0.092,0.367c0.012,0.044,0.022,0.09,0.034,0.134
		c0.165,0.609,0.35,1.208,0.548,1.8c0.042,0.125,0.086,0.247,0.129,0.371C8.335,39.782,8.372,39.892,8.411,40H4.558
		c-0.379-0.971-0.705-1.973-0.983-3H7.495z M10.812,12.884c-0.084,0.143-0.164,0.291-0.246,0.436
		c-0.221,0.389-0.434,0.785-0.638,1.186c-0.075,0.148-0.152,0.294-0.225,0.444C9.695,14.966,9.686,14.983,9.678,15H5.929
		c0.757-1.427,1.629-2.762,2.596-4h3.503c-0.122,0.175-0.245,0.349-0.364,0.527C11.369,11.97,11.085,12.422,10.812,12.884z
		 M13.732,6h2.762c-0.248,0.217-0.496,0.435-0.737,0.662c-0.201,0.19-0.396,0.387-0.592,0.584c-0.198,0.199-0.394,0.401-0.586,0.606
		c-0.185,0.197-0.37,0.393-0.55,0.596C13.869,8.628,13.716,8.815,13.561,9h-3.302C11.333,7.883,12.492,6.876,13.732,6z M9.324,48
		h3.432c0.113,0.148,0.225,0.296,0.341,0.441c0.302,0.38,0.613,0.75,0.932,1.111c0.179,0.203,0.365,0.399,0.55,0.596
		c0.193,0.206,0.389,0.408,0.588,0.607c0.08,0.08,0.156,0.166,0.237,0.245h-3.008C11.297,50.101,10.27,49.097,9.324,48z
		 M21.753,55.558c-2.293-0.483-4.46-1.369-6.47-2.558h2.419c0.128,0.099,0.26,0.192,0.389,0.288
		c0.207,0.154,0.414,0.309,0.625,0.456c0.393,0.274,0.794,0.537,1.201,0.787c0.178,0.109,0.36,0.211,0.541,0.316
		c0.323,0.187,0.65,0.367,0.981,0.539C21.546,55.441,21.647,55.505,21.753,55.558z M32,56c-0.795,0-1.58-0.047-2.354-0.136
		l-0.387-0.054c-0.054-0.007-0.107-0.016-0.16-0.023c-0.346-0.049-0.689-0.106-1.029-0.172c-0.029-0.006-0.057-0.012-0.085-0.018
		c-0.331-0.065-0.659-0.138-0.984-0.219c-0.049-0.012-0.098-0.026-0.147-0.039c-0.303-0.078-0.605-0.16-0.903-0.251
		c-0.091-0.028-0.182-0.06-0.273-0.089c-0.255-0.081-0.509-0.164-0.76-0.255c-0.204-0.074-0.405-0.156-0.606-0.236
		c-0.137-0.054-0.276-0.105-0.411-0.162c-5.377-2.275-9.836-6.748-12.549-12.466c-0.025-0.052-0.048-0.107-0.072-0.159
		c-0.145-0.311-0.286-0.625-0.421-0.943c-0.054-0.127-0.104-0.256-0.156-0.384c-0.101-0.248-0.201-0.497-0.295-0.749
		c-0.061-0.162-0.118-0.327-0.176-0.491c-0.079-0.222-0.157-0.445-0.23-0.67c-0.06-0.184-0.117-0.37-0.174-0.555
		c-0.065-0.211-0.128-0.423-0.188-0.636C9.584,37.098,9.531,36.9,9.48,36.703c-0.054-0.209-0.106-0.42-0.156-0.631
		c-0.048-0.202-0.094-0.404-0.138-0.608c-0.046-0.213-0.088-0.427-0.129-0.642c-0.039-0.205-0.078-0.41-0.114-0.617
		c-0.038-0.221-0.071-0.443-0.104-0.666c-0.03-0.202-0.061-0.403-0.087-0.607c-0.031-0.24-0.055-0.483-0.08-0.725
		c-0.02-0.189-0.042-0.377-0.058-0.567c-0.024-0.278-0.04-0.558-0.056-0.839c-0.009-0.158-0.022-0.314-0.029-0.472
		C8.511,29.889,8.5,29.446,8.5,29s0.011-0.889,0.029-1.33c0.007-0.158,0.02-0.315,0.029-0.472c0.016-0.28,0.032-0.561,0.056-0.839
		c0.016-0.19,0.038-0.378,0.058-0.567c0.025-0.242,0.05-0.484,0.08-0.725c0.026-0.203,0.057-0.405,0.087-0.607
		c0.033-0.223,0.066-0.445,0.104-0.666c0.035-0.207,0.074-0.412,0.114-0.617c0.041-0.215,0.084-0.429,0.129-0.642
		c0.044-0.204,0.09-0.406,0.138-0.608c0.05-0.211,0.102-0.422,0.156-0.631c0.051-0.198,0.104-0.395,0.159-0.591
		c0.06-0.213,0.123-0.425,0.188-0.636c0.057-0.186,0.114-0.371,0.174-0.555c0.074-0.225,0.152-0.448,0.231-0.671
		c0.058-0.164,0.115-0.328,0.176-0.49c0.095-0.252,0.194-0.501,0.295-0.749c0.052-0.128,0.102-0.257,0.156-0.384
		c0.135-0.318,0.276-0.632,0.421-0.943c0.025-0.053,0.047-0.107,0.072-0.159c2.713-5.718,7.172-10.19,12.549-12.466
		c0.136-0.057,0.274-0.108,0.411-0.162c0.201-0.08,0.402-0.162,0.606-0.236c0.251-0.091,0.505-0.173,0.76-0.255
		c0.091-0.029,0.181-0.061,0.273-0.089c0.298-0.091,0.6-0.174,0.903-0.251C26.902,2.648,26.951,2.633,27,2.621
		c0.325-0.081,0.653-0.153,0.984-0.219c0.029-0.006,0.057-0.012,0.085-0.018c0.34-0.066,0.683-0.123,1.029-0.172
		c0.053-0.008,0.107-0.016,0.16-0.023l0.387-0.054C30.42,2.047,31.205,2,32,2c12.958,0,23.5,12.112,23.5,27S44.958,56,32,56z"/>
	<path fill="#3b82ba" d="M14.167,29c0-0.629,0.025-1.261,0.074-1.879c0.043-0.55-0.367-1.032-0.918-1.076c-0.553-0.04-1.032,0.368-1.076,0.918
		c-0.053,0.669-0.08,1.355-0.08,2.037v0.021c0,0.552,0.448,0.989,1,0.989S14.167,29.552,14.167,29z"/>
	<path fill="#3b82ba" d="M49.134,23.292c0.114,0.454,0.521,0.756,0.969,0.756c0.081,0,0.163-0.01,0.245-0.03c0.535-0.135,0.86-0.678,0.726-1.214
		c-0.168-0.668-0.365-1.334-0.587-1.98c-0.179-0.522-0.747-0.803-1.27-0.622c-0.522,0.179-0.801,0.748-0.622,1.27
		C48.798,22.065,48.979,22.678,49.134,23.292z"/>
	<path fill="#3b82ba" d="M45.022,43.019c-0.4,0.492-0.823,0.963-1.257,1.402c-0.389,0.392-0.386,1.025,0.006,1.414
		c0.195,0.193,0.45,0.29,0.704,0.29c0.257,0,0.515-0.099,0.71-0.296c0.481-0.485,0.948-1.006,1.389-1.548
		c0.349-0.429,0.283-1.059-0.145-1.407C46.001,42.525,45.371,42.591,45.022,43.019z"/>
	<path fill="#3b82ba" d="M14.856,34.669c-0.133-0.536-0.678-0.864-1.212-0.729c-0.536,0.133-0.862,0.676-0.729,1.212
		c0.166,0.667,0.362,1.334,0.583,1.982c0.142,0.416,0.53,0.678,0.946,0.678c0.107,0,0.216-0.018,0.323-0.054
		c0.522-0.178,0.802-0.746,0.624-1.269C15.189,35.895,15.009,35.282,14.856,34.669z"/>
	<path fill="#3b82ba" d="M41.858,9.449c-0.584-0.381-1.194-0.732-1.812-1.043c-0.494-0.25-1.094-0.049-1.343,0.442
		c-0.249,0.493-0.051,1.095,0.442,1.343c0.553,0.279,1.098,0.593,1.621,0.934c0.168,0.11,0.358,0.162,0.545,0.162
		c0.327,0,0.647-0.16,0.839-0.454C42.451,10.371,42.321,9.751,41.858,9.449z"/>
	<path fill="#3b82ba" d="M39.254,47.753c-0.556,0.285-1.13,0.54-1.706,0.757c-0.517,0.194-0.778,0.771-0.583,1.288
		c0.151,0.401,0.531,0.648,0.936,0.648c0.117,0,0.236-0.021,0.353-0.065c0.647-0.244,1.291-0.529,1.914-0.849
		c0.491-0.252,0.686-0.855,0.433-1.346C40.348,47.695,39.745,47.5,39.254,47.753z"/>
	<path fill="#3b82ba" d="M47.73,15.277c-0.389-0.575-0.807-1.134-1.243-1.663c-0.351-0.426-0.982-0.488-1.408-0.136
		c-0.426,0.351-0.487,0.981-0.136,1.408c0.396,0.481,0.776,0.99,1.13,1.512c0.193,0.286,0.508,0.439,0.829,0.439
		c0.193,0,0.388-0.056,0.56-0.172C47.92,16.355,48.04,15.734,47.73,15.277z"/>
	<path fill="#3b82ba" d="M50.833,27.968c-0.552,0-1,0.48-1,1.032c0,0.613-0.024,1.232-0.071,1.838c-0.042,0.551,0.369,1.032,0.92,1.074
		c0.026,0.002,0.052,0.003,0.078,0.003c0.517,0,0.956-0.398,0.996-0.923c0.051-0.658,0.077-1.328,0.077-1.993v-0.065
		C51.833,28.383,51.386,27.968,50.833,27.968z"/>
	<path fill="#3b82ba" d="M49.901,35.782c-0.524-0.176-1.09,0.106-1.267,0.629c-0.202,0.599-0.431,1.194-0.681,1.769
		c-0.22,0.506,0.011,1.096,0.518,1.316c0.13,0.057,0.266,0.083,0.399,0.083c0.386,0,0.753-0.225,0.917-0.601
		c0.273-0.627,0.523-1.277,0.743-1.93C50.707,36.525,50.425,35.958,49.901,35.782z"/>
	<path fill="#3b82ba" d="M34.049,6.595C33.371,6.516,32.682,6.476,32,6.476h-0.042c-0.552,0-0.979,0.448-0.979,1s0.469,1,1.021,1
		c0.605,0,1.217,0.035,1.819,0.105c0.039,0.005,0.078,0.007,0.117,0.007c0.5,0,0.933-0.375,0.992-0.885
		C34.991,7.154,34.598,6.658,34.049,6.595z"/>
	<path fill="#3b82ba" d="M17.903,41.568c-0.309-0.459-0.931-0.579-1.388-0.27c-0.458,0.309-0.579,0.93-0.27,1.388
		c0.388,0.575,0.805,1.135,1.239,1.665c0.198,0.241,0.485,0.366,0.774,0.366c0.223,0,0.448-0.074,0.634-0.227
		c0.427-0.351,0.489-0.98,0.139-1.408C18.636,42.602,18.256,42.092,17.903,41.568z"/>
	<path fill="#3b82ba" d="M15.547,18.465c-0.507-0.22-1.095,0.009-1.317,0.516c-0.275,0.629-0.526,1.278-0.747,1.928
		c-0.177,0.523,0.103,1.091,0.626,1.269c0.106,0.036,0.215,0.053,0.321,0.053c0.417,0,0.806-0.263,0.947-0.679
		c0.202-0.597,0.433-1.192,0.685-1.77C16.285,19.276,16.054,18.686,15.547,18.465z"/>
	<path fill="#3b82ba" d="M32,49.524c-0.622,0-1.247-0.037-1.858-0.11c-0.545-0.058-1.046,0.326-1.112,0.875c-0.065,0.548,0.326,1.046,0.875,1.112
		c0.69,0.082,1.396,0.124,2.096,0.124h0.086c0.552,0,0.957-0.448,0.957-1S32.552,49.524,32,49.524z"/>
	<path fill="#3b82ba" d="M18.846,12.139c-0.481,0.485-0.95,1.004-1.391,1.545c-0.35,0.428-0.286,1.058,0.142,1.407
		c0.186,0.152,0.41,0.226,0.632,0.226c0.29,0,0.577-0.125,0.775-0.367c0.401-0.491,0.825-0.962,1.261-1.4
		c0.389-0.392,0.387-1.025-0.004-1.415C19.869,11.746,19.237,11.749,18.846,12.139z"/>
	<path fill="#3b82ba" d="M25.789,7.602c-0.648,0.243-1.293,0.527-1.916,0.845c-0.492,0.25-0.688,0.853-0.437,1.345
		c0.176,0.347,0.527,0.546,0.892,0.546c0.153,0,0.308-0.035,0.453-0.109c0.556-0.283,1.131-0.537,1.708-0.753
		c0.517-0.194,0.78-0.77,0.586-1.287C26.883,7.67,26.305,7.408,25.789,7.602z"/>
	<path fill="#3b82ba" d="M24.819,47.791c-0.55-0.279-1.095-0.595-1.619-0.938c-0.463-0.302-1.081-0.172-1.385,0.289
		c-0.302,0.462-0.173,1.082,0.289,1.384c0.585,0.383,1.194,0.736,1.809,1.048c0.145,0.074,0.3,0.108,0.452,0.108
		c0.365,0,0.716-0.2,0.893-0.547C25.508,48.643,25.311,48.041,24.819,47.791z"/>
</g>
</svg>
